<svg xmlns="http://www.w3.org/2000/svg" width="575.987" height="512.075" viewBox="0 0 575.987 512.075"><defs><style>.a{fill:#fff;}</style></defs><path class="a" d="M402.3,344.9l32-32a8.039,8.039,0,0,1,13.7,5.7V464a48.012,48.012,0,0,1-48,48H48A48.012,48.012,0,0,1,0,464V112A48.012,48.012,0,0,1,48,64H321.5a8.051,8.051,0,0,1,5.7,13.7l-32,32a7.928,7.928,0,0,1-5.7,2.3H48V464H400V350.5A7.865,7.865,0,0,1,402.3,344.9ZM558.9,143.1,296.3,405.7l-90.4,10a41.312,41.312,0,0,1-45.6-45.6l10-90.4L432.9,17.1a58.364,58.364,0,0,1,82.7,0l43.2,43.2a58.575,58.575,0,0,1,.1,82.8ZM460.1,174,402,115.9,216.2,301.8l-7.3,65.3,65.3-7.3Zm64.8-79.7L481.7,51.1a10.441,10.441,0,0,0-14.8,0L436,82l58.1,58.1L525,109.2A10.655,10.655,0,0,0,524.9,94.3Z" transform="translate(0 0.075)"/></svg>